<svg width="41" height="38" viewBox="0 0 41 38" fill="none" xmlns="http://www.w3.org/2000/svg">
<path d="M14.6344 0.950012C19.1925 0.950012 22.8844 4.64189 22.8844 9.20001C22.8844 13.7581 19.1925 17.45 14.6344 17.45C10.0763 17.45 6.38439 13.7581 6.38439 9.20001C6.38439 4.64189 10.0763 0.950012 14.6344 0.950012ZM12.5856 21.3H16.6694H16.7725C15.8856 23.1425 16.2363 25.3013 17.5631 26.7656C16.1744 28.2988 15.8581 30.6019 16.9169 32.4994L18.4638 35.2769C18.5256 35.3869 18.5944 35.4969 18.6631 35.6H2.36939C1.24189 35.6 0.327515 34.6856 0.327515 33.5581C0.327515 26.7863 5.81376 21.3 12.5856 21.3ZM26.7413 17.4225C26.7413 16.5081 27.4769 15.7725 28.3913 15.7725H31.6913C32.6056 15.7725 33.3413 16.5081 33.3413 17.4225V17.8419C33.3413 19.1413 34.9981 20.0969 36.1256 19.4506L36.4694 19.2513C37.2669 18.7906 38.2913 19.0725 38.7381 19.8769L40.2781 22.6406C40.7044 23.4106 40.4569 24.3731 39.7144 24.8406L39.3913 25.04C38.2775 25.7344 38.2775 27.7831 39.3913 28.4844L39.7075 28.6838C40.45 29.1513 40.7044 30.1138 40.2781 30.8838L38.7313 33.6613C38.2844 34.4656 37.26 34.7544 36.4625 34.2869L36.1256 34.0875C34.9981 33.4344 33.3413 34.3969 33.3413 35.6963V36.1156C33.3413 37.03 32.6056 37.7656 31.6913 37.7656H28.3913C27.4769 37.7656 26.7413 37.03 26.7413 36.1156V35.71C26.7413 34.4038 25.0775 33.4413 23.9431 34.0944L23.6131 34.2869C22.8156 34.7475 21.7981 34.4656 21.3444 33.6613L19.7906 30.8838C19.3644 30.1138 19.6119 29.1444 20.3613 28.6769L20.6638 28.4913C21.7844 27.7969 21.7844 25.7344 20.6638 25.04L20.3544 24.8475C19.605 24.38 19.3575 23.4106 19.7838 22.6406L21.3306 19.87C21.7775 19.0656 22.8019 18.7838 23.5925 19.2444L23.9225 19.4369C25.0569 20.09 26.7206 19.1275 26.7206 17.8213V17.4156L26.7413 17.4225ZM33.6094 26.7863C33.6094 24.8131 32.0075 23.2113 30.0344 23.2113C28.0613 23.2113 26.4594 24.8131 26.4594 26.7863C26.4594 28.7594 28.0613 30.3613 30.0344 30.3613C32.0075 30.3613 33.6094 28.7594 33.6094 26.7863Z" fill="#4A9EFF"/>
</svg>
