<svg width="32" height="36" viewBox="0 0 32 36" fill="none" xmlns="http://www.w3.org/2000/svg">
<path d="M16 4.79999C10.5687 4.79999 6.05185 8.73937 5.1581 13.9231C5.79748 13.7169 6.48498 13.6 7.19998 13.6H8.29998C10.1219 13.6 11.6 15.0781 11.6 16.9V23.5C11.6 25.3219 10.1219 26.8 8.29998 26.8H7.19998C3.55623 26.8 0.599976 23.8437 0.599976 20.2V15.8C0.599976 7.29562 7.4956 0.399994 16 0.399994C24.5044 0.399994 31.4 7.29562 31.4 15.8V27.3569C31.4 31.915 27.7012 35.6069 23.1431 35.6069L17.1 35.6H14.9C13.0781 35.6 11.6 34.1219 11.6 32.3C11.6 30.4781 13.0781 29 14.9 29H17.1C18.9219 29 20.4 30.4781 20.4 32.3H23.15C25.8862 32.3 28.1 30.0862 28.1 27.35V25.9131C27.1306 26.4769 26.0031 26.7931 24.8 26.7931H23.7C21.8781 26.7931 20.4 25.315 20.4 23.4931V16.8931C20.4 15.0712 21.8781 13.5931 23.7 13.5931H24.8C25.515 13.5931 26.1956 13.7031 26.8419 13.9162C25.9481 8.73937 21.4381 4.79312 16 4.79312V4.79999Z" fill="#4A9EFF"/>
</svg>
