<svg width="44" height="33" viewBox="0 0 44 33" fill="none" xmlns="http://www.w3.org/2000/svg">
<path d="M3.72266 0.5H26.0615C27.7639 0.5 29.2842 2.16811 29.2842 4.40039V22C29.2842 24.2323 27.7639 25.9004 26.0615 25.9004H17.0244L17.2031 26.5361L18.1338 29.8359L18.2373 30.2002H22.8037C23.2262 30.2002 23.7 30.6301 23.7002 31.3496C23.7002 32.0694 23.2262 32.5 22.8037 32.5H6.98047C6.55802 32.4998 6.08496 32.0692 6.08496 31.3496C6.08513 30.6302 6.5581 30.2004 6.98047 30.2002H11.5479L11.6504 29.8359L12.5811 26.5361L12.7607 25.9004H3.72266C2.0205 25.9001 0.5 24.2321 0.5 22V4.40039C0.5 2.16829 2.0205 0.500275 3.72266 0.5ZM5.58496 3.90039C4.20424 3.90039 3.22284 5.1883 3.22266 6.59961V17.5996C3.22266 19.0111 4.20412 20.2998 5.58496 20.2998H24.2002C25.5809 20.2997 26.5615 19.011 26.5615 17.5996V6.59961C26.5613 5.18836 25.5808 3.90051 24.2002 3.90039H5.58496Z" fill="#4A9EFF" stroke="#0F2340"/>
<path d="M33.6153 10.5H41.6924C42.5921 10.5001 43.5001 11.4573 43.5001 12.875V30.125C43.5001 31.5427 42.5921 32.4999 41.6924 32.5H33.6153C32.7156 32.4999 31.8077 31.5427 31.8077 30.125V12.875C31.8077 11.4573 32.7156 10.5001 33.6153 10.5ZM37.6534 27.8281C36.6423 27.8284 36.0001 28.8027 36.0001 29.7656C36.0001 30.7286 36.6423 31.7028 37.6534 31.7031C38.6647 31.7031 39.3077 30.7287 39.3077 29.7656C39.3077 28.8026 38.6647 27.8281 37.6534 27.8281ZM33.1153 27.0312H42.1924V12.375H33.1153V27.0312Z" fill="#4A9EFF" stroke="#0F2340"/>
</svg>
