<svg width="30" height="36" viewBox="0 0 30 36" fill="none" xmlns="http://www.w3.org/2000/svg">
<path d="M15 17.45C10.4419 17.45 6.75001 13.7581 6.75001 9.20001C6.75001 4.64189 10.4419 0.950012 15 0.950012C19.5581 0.950012 23.25 4.64189 23.25 9.20001C23.25 13.7581 19.5581 17.45 15 17.45ZM12.9031 21.3H17.0969C17.7638 21.3 18.3 21.8363 18.3 22.5031C18.3 22.7919 18.1969 23.0669 18.0113 23.2869L16.1275 25.4869L18.2588 33.4H18.3L20.6788 23.8781C20.83 23.28 21.4419 22.9156 22.0194 23.1356C26.275 24.7581 29.3 28.8831 29.3 33.7094C29.3 34.7475 28.4544 35.5931 27.4163 35.5931L2.58376 35.6C1.54564 35.6 0.700012 34.7544 0.700012 33.7163C0.700012 28.89 3.72501 24.765 7.98064 23.1425C8.55814 22.9225 9.17001 23.2869 9.32126 23.885L11.7 33.4069H11.7413L13.8725 25.4938L11.9888 23.2938C11.8031 23.0738 11.7 22.7988 11.7 22.51C11.7 21.8431 12.2363 21.3069 12.9031 21.3069V21.3Z" fill="#4A9EFF"/>
</svg>
