<svg width="40" height="32" viewBox="0 0 40 32" fill="none" xmlns="http://www.w3.org/2000/svg">
<path d="M17.25 4.45001H22.75V7.75001H17.25V4.45001ZM16.7 0.600006C14.8781 0.600006 13.4 2.07813 13.4 3.90001V8.30001C13.4 10.1219 14.8781 11.6 16.7 11.6H17.8V13.8H2.40001C1.18314 13.8 0.200012 14.7831 0.200012 16C0.200012 17.2169 1.18314 18.2 2.40001 18.2H9.00001V20.4H7.90001C6.07814 20.4 4.60001 21.8781 4.60001 23.7V28.1C4.60001 29.9219 6.07814 31.4 7.90001 31.4H14.5C16.3219 31.4 17.8 29.9219 17.8 28.1V23.7C17.8 21.8781 16.3219 20.4 14.5 20.4H13.4V18.2H26.6V20.4H25.5C23.6781 20.4 22.2 21.8781 22.2 23.7V28.1C22.2 29.9219 23.6781 31.4 25.5 31.4H32.1C33.9219 31.4 35.4 29.9219 35.4 28.1V23.7C35.4 21.8781 33.9219 20.4 32.1 20.4H31V18.2H37.6C38.8169 18.2 39.8 17.2169 39.8 16C39.8 14.7831 38.8169 13.8 37.6 13.8H22.2V11.6H23.3C25.1219 11.6 26.6 10.1219 26.6 8.30001V3.90001C26.6 2.07813 25.1219 0.600006 23.3 0.600006H16.7ZM31 24.25H31.55V27.55H26.05V24.25H31ZM13.4 24.25H13.95V27.55H8.45001V24.25H13.4Z" fill="#4A9EFF"/>
</svg>
