<svg width="36" height="36" viewBox="0 0 36 36" fill="none" xmlns="http://www.w3.org/2000/svg">
<path d="M28.175 0.399994C29.495 0.399994 30.76 0.922494 31.6881 1.85749L34.1425 4.31187C35.0775 5.23999 35.6 6.50499 35.6 7.82499C35.6 9.14499 35.0775 10.41 34.1425 11.3381L31.0556 14.425L21.575 4.94437L24.6619 1.85749C25.59 0.922494 26.855 0.399994 28.175 0.399994ZM4.44939 22.0631L19.2444 7.27499L28.725 16.7556L13.9369 31.5506C13.2013 32.2862 12.28 32.8225 11.2763 33.1044L2.49002 35.5381C1.91939 35.6962 1.30064 35.5381 0.881269 35.1119C0.461894 34.6856 0.296894 34.0737 0.455019 33.5031L2.90252 24.7237C3.18439 23.72 3.71377 22.8056 4.45627 22.0631H4.44939ZM15.8963 5.95499L5.95502 15.8962L1.20439 11.1456C0.131893 10.0731 0.131893 8.33374 1.20439 7.25437L7.25439 1.20437C8.32689 0.131869 10.0663 0.131869 11.1456 1.20437L11.5513 1.60999L7.68064 5.48062C7.14439 6.01687 7.14439 6.88999 7.68064 7.42624C8.21689 7.96249 9.09002 7.96249 9.62627 7.42624L13.4969 3.55562L15.8963 5.95499ZM30.045 20.1037L32.4444 22.5031L28.5738 26.3737C28.0375 26.91 28.0375 27.7831 28.5738 28.3194C29.11 28.8556 29.9831 28.8556 30.5194 28.3194L34.39 24.4487L34.7956 24.8544C35.8681 25.9269 35.8681 27.6662 34.7956 28.7456L28.7456 34.7956C27.6731 35.8681 25.9338 35.8681 24.8544 34.7956L20.1038 30.045L30.045 20.1037Z" fill="#4A9EFF"/>
</svg>
