<?xml version="1.0" encoding="UTF-8"?>
<svg version="1.1" xmlns="http://www.w3.org/2000/svg" width="724" height="198">
<path d="M0 0 C5.83947797 -0.49957511 10.47569677 -0.65243518 15.625 2.375 C20.90597115 5.40603971 25.96238923 5.83999796 31.93603516 6.19091797 C40.0630028 6.79437775 44.57924218 11.32111085 50 17 C47.44380002 22.75144995 44.14541231 26.55212738 38.46875 29.2421875 C35.4523378 30.1681115 32.71299865 30.26458533 29.5625 30.375 C23.69640104 30.63389868 20.39147433 32.02480505 15.8046875 35.625 C12.36307802 38.24717866 9.11425357 38.16212483 4.9375 38.1875 C3.87402344 38.20167969 2.81054688 38.21585938 1.71484375 38.23046875 C-1 38 -1 38 -3 36 C-2.30132812 35.68546875 -1.60265625 35.3709375 -0.8828125 35.046875 C0.02726563 34.61890625 0.93734375 34.1909375 1.875 33.75 C2.77992188 33.33234375 3.68484375 32.9146875 4.6171875 32.484375 C7.25740351 30.83965027 7.76675437 29.76365888 9 27 C-38.07304598 35.54426891 -82.68158298 65.77867338 -109.75 104.6875 C-114.0318756 110.51608336 -114.0318756 110.51608336 -117 117 C-115.36271864 122.21945451 -110.53732468 124.496417 -106 127 C-92.99603343 132.69372569 -81.53896177 133.268755 -68 129 C-56.49394378 123.90571557 -47.49630781 116.56798687 -42.65625 104.70703125 C-42.2540625 103.58683594 -41.851875 102.46664062 -41.4375 101.3125 C-38.8870519 94.2593064 -36.20548315 89.87490524 -29.6875 86.0625 C-23.66112853 84.32608788 -18.55922529 84.01030161 -12.75 86.625 C-7.90693357 89.36490213 -5.12638174 92.74723653 -2.625 97.75 C-0.29934912 109.84338459 -6.31333741 122.18032704 -12.6875 132.1875 C-27.07693339 152.50199419 -45.71938709 164.86796136 -70 170 C-93.13667599 173.86470089 -115.6275364 168.54278737 -134.80859375 155.296875 C-145.133339 147.86609139 -145.133339 147.86609139 -147 145 C-147.0152004 138.83623857 -144.31746787 134.08192381 -141.4375 128.8125 C-140.98640869 127.97388428 -140.53531738 127.13526855 -140.07055664 126.27124023 C-136.41417557 119.5645402 -132.47147226 113.20008875 -128 107 C-127.31550781 106.04222656 -126.63101563 105.08445312 -125.92578125 104.09765625 C-114.65542604 88.69955874 -102.09292653 74.73894286 -87 63 C-86.17653076 62.35393799 -86.17653076 62.35393799 -85.33642578 61.69482422 C-75.46452067 54.00189058 -65.10441008 47.75072679 -54 42 C-52.83597656 41.38511719 -51.67195313 40.77023438 -50.47265625 40.13671875 C-42.33695245 36.08284572 -33.91125217 33.10271657 -25.3125 30.1875 C-24.18400635 29.80198975 -23.0555127 29.41647949 -21.89282227 29.01928711 C-14.65447411 26.63400049 -7.55294772 25.01646348 0 24 C-0.33 23.34 -0.66 22.68 -1 22 C-1.039992 20.00039988 -1.04346799 17.99952758 -1 16 C-57.22275817 25.52367192 -111.06461323 53.8698929 -145.109375 100.71484375 C-152.68516488 111.62308523 -159.45393945 123.94768814 -157.59375 137.58203125 C-155.9124343 144.42896822 -151.73281934 148.79525723 -146.0703125 152.74609375 C-143.13961327 154.52110215 -140.20668691 155.79749241 -137 157 C-137 157.33 -137 157.66 -137 158 C-144.55849423 158.55988846 -150.86244314 157.04208943 -157.05078125 152.4921875 C-162.15859352 147.78906271 -165.61563164 142.12743377 -166.26953125 135.10571289 C-166.28567713 131.93683081 -166.20205529 128.79080216 -166.0625 125.625 C-165.7542736 118.06195212 -166.03795643 111.7028167 -168.2644043 104.43725586 C-174.31335881 84.39520045 -168.9222982 61.05038104 -159.44140625 43.0390625 C-154.9342374 35.49468875 -149.13829259 29.22777208 -143 23 C-142.34257812 22.3296875 -141.68515625 21.659375 -141.0078125 20.96875 C-123.9143271 4.82897838 -101.13017747 0.32634267 -78.46875 0.6953125 C-63.82804856 1.20731391 -51.89439364 6.43257573 -39 13 C-36.0115283 14.49423585 -34.05180857 13.39508644 -30.8125 12.625 C-17.53169576 9.76181105 -3.52708483 10.23063323 10 10 C8.84951172 8.57107422 8.84951172 8.57107422 7.67578125 7.11328125 C7.02863159 6.3095105 7.02863159 6.3095105 6.3684082 5.48950195 C4.52329111 3.48110599 2.38111957 2.29260777 0 1 C0 0.67 0 0.34 0 0 Z M33 15 C32.67 16.65 32.34 18.3 32 20 C33.485 20.99 33.485 20.99 35 22 C35.99 21.34 36.98 20.68 38 20 C37.67 18.35 37.34 16.7 37 15 C35.68 15 34.36 15 33 15 Z " fill="#FFFFFF" transform="translate(188,13)"/>
<path d="M0 0 C0.92212784 0.00359528 1.84425568 0.00719055 2.79432678 0.01089478 C4.24295105 0.01067574 4.24295105 0.01067574 5.72084045 0.01045227 C8.92952175 0.01115182 12.1381458 0.0189462 15.34681702 0.02676392 C17.56499195 0.02862794 19.78316729 0.03005192 22.00134277 0.03105164 C27.85231148 0.03487801 33.70325554 0.04470931 39.55421448 0.05575562 C45.51958381 0.06596717 51.4849571 0.07054871 57.45033264 0.07559204 C69.16453621 0.08633147 80.87872144 0.10340932 92.59291077 0.12442017 C91.95557533 7.13511002 89.96479711 12.00876114 87.59291077 19.12442017 C69.11291077 19.12442017 50.63291077 19.12442017 31.59291077 19.12442017 C30.60291077 22.75442017 29.61291077 26.38442017 28.59291077 30.12442017 C27.93291077 31.77442017 27.27291077 33.42442017 26.59291077 35.12442017 C100.84291077 35.12442017 175.09291077 35.12442017 251.59291077 35.12442017 C252.25291077 31.82442017 252.91291077 28.52442017 253.59291077 25.12442017 C257.83685362 25.12442017 258.43135651 25.37553849 261.63978577 27.75723267 C262.78447327 28.59641235 262.78447327 28.59641235 263.95228577 29.45254517 C264.74119202 30.04551392 265.53009827 30.63848267 266.34291077 31.24942017 C267.11634827 31.81918579 267.88978577 32.38895142 268.68666077 32.97598267 C270.99687874 34.68151271 273.29636398 36.40053667 275.59291077 38.12442017 C276.37214905 38.70804321 277.15138733 39.29166626 277.95423889 39.89297485 C279.83478734 41.30214353 281.71435042 42.71260288 283.59291077 44.12442017 C280.04504737 47.02356053 276.11065189 49.05570645 272.05384827 51.13613892 C271.33178192 51.50922684 270.60971558 51.88231476 269.86576843 52.26670837 C268.3454238 53.0509505 266.82411141 53.83331905 265.30189514 54.61392212 C262.96618076 55.81280815 260.63487813 57.01997158 258.30384827 58.22793579 C256.82493931 58.98950416 255.34578117 59.75058888 253.86634827 60.51113892 C253.16738434 60.873582 252.46842041 61.23602509 251.74827576 61.60945129 C246.82266083 64.12442017 246.82266083 64.12442017 244.59291077 64.12442017 C245.25291077 60.82442017 245.91291077 57.52442017 246.59291077 54.12442017 C244.61291077 54.45442017 242.63291077 54.78442017 240.59291077 55.12442017 C238.94291077 60.07442017 237.29291077 65.02442017 235.59291077 70.12442017 C253.74291077 70.12442017 271.89291077 70.12442017 290.59291077 70.12442017 C287.59291077 81.12442017 287.59291077 81.12442017 284.59291077 89.12442017 C251.26291077 89.12442017 217.93291077 89.12442017 183.59291077 89.12442017 C187.49305321 77.42399282 191.44476187 65.73923708 195.59291077 54.12442017 C108.96791077 54.61942017 108.96791077 54.61942017 20.59291077 55.12442017 C18.94291077 60.07442017 17.29291077 65.02442017 15.59291077 70.12442017 C33.74291077 70.12442017 51.89291077 70.12442017 70.59291077 70.12442017 C67.59291077 81.12442017 67.59291077 81.12442017 64.59291077 89.12442017 C31.59291077 89.12442017 -1.40708923 89.12442017 -35.40708923 89.12442017 C-32.03242724 76.75065953 -32.03242724 76.75065953 -30.5252533 72.17593384 C-30.1877002 71.14663254 -29.85014709 70.11733124 -29.50236511 69.05683899 C-29.14608032 67.97957047 -28.78979553 66.90230194 -28.42271423 65.79238892 C-28.04403198 64.63934769 -27.66534973 63.48630646 -27.27519226 62.29832458 C-26.07175248 58.63533042 -24.8646435 54.97355977 -23.65708923 51.31192017 C-22.07751906 46.51421755 -20.49979048 41.71591182 -18.92271423 36.91738892 C-18.53990295 35.75448334 -18.15709167 34.59157776 -17.76268005 33.39343262 C-14.9452045 24.81677638 -12.19330244 16.22063854 -9.5131073 7.60005188 C-9.24834595 6.75642593 -8.98358459 5.91279999 -8.71080017 5.04360962 C-8.48164917 4.30657303 -8.25249817 3.56953644 -8.0164032 2.81016541 C-6.60714384 -1.08873136 -3.69046166 0.00608017 0 0 Z " fill="#FFFFFF" transform="translate(232.40708923339844,61.875579833984375)"/>
<path d="M0 0 C14.52 0 29.04 0 44 0 C43.35504682 4.51467224 42.85875603 7.9238261 41.48120117 12.08642578 C41.17385544 13.02495392 40.8665097 13.96348206 40.54985046 14.93045044 C40.2175795 15.92535492 39.88530853 16.9202594 39.54296875 17.9453125 C39.19873367 18.99218231 38.8544986 20.03905212 38.49983215 21.11764526 C37.40121429 24.45527157 36.29467722 27.7902044 35.1875 31.125 C33.74141588 35.50192112 32.29837439 39.8798427 30.85546875 44.2578125 C30.51200409 45.29794495 30.16853943 46.33807739 29.81466675 47.409729 C27.4517213 54.579922 25.15727891 61.76481844 23 69 C26.3 69.33 29.6 69.66 33 70 C33.60485229 67.71002075 33.60485229 67.71002075 34.22192383 65.3737793 C36.09239577 58.52121495 38.25831562 51.77526395 40.44921875 45.01953125 C40.87113248 43.71252824 41.2928254 42.40545394 41.71430969 41.09831238 C42.81190777 37.69634151 43.9124562 34.29533255 45.01367188 30.89453125 C46.1417959 27.4087915 47.2670851 23.92213684 48.39257812 20.43554688 C50.59202851 13.62271389 52.7961216 6.81140818 55 0 C67.87 0 80.74 0 94 0 C91.74969696 10.12636367 91.74969696 10.12636367 90.36767578 14.43701172 C90.06040558 15.40186493 89.75313538 16.36671814 89.43655396 17.36080933 C89.10944427 18.37353912 88.78233459 19.38626892 88.4453125 20.4296875 C88.10249237 21.50066681 87.75967224 22.57164612 87.40646362 23.67507935 C86.68384699 25.92966704 85.95929566 28.18363546 85.23291016 30.43701172 C84.13103988 33.85625746 83.03572999 37.27755123 81.94140625 40.69921875 C81.23476289 42.90116618 80.52774387 45.10299311 79.8203125 47.3046875 C79.49725128 48.31336884 79.17419006 49.32205017 78.84133911 50.36129761 C76.70868083 56.9662575 74.4045614 63.48895169 72 70 C75.63 70 79.26 70 83 70 C83.2357373 68.80834229 83.47147461 67.61668457 83.71435547 66.38891602 C85.20282648 59.70966463 87.41781278 53.26551552 89.5703125 46.77734375 C90.01623629 45.42269597 90.4617763 44.0679218 90.9069519 42.71302795 C92.07034497 39.17566473 93.23888745 35.64002422 94.40856934 32.10473633 C95.8159245 27.84742102 97.21677093 23.5879601 98.61872864 19.32886505 C100.74088047 12.88426702 102.87119968 6.44242202 105 0 C119.52 0 134.04 0 149 0 C148.35886551 4.48794145 147.83200908 8.01325037 146.51293945 12.1940918 C146.06160393 13.63675667 146.06160393 13.63675667 145.60115051 15.10856628 C145.27515366 16.1284816 144.9491568 17.14839691 144.61328125 18.19921875 C144.27378952 19.27065628 143.93429779 20.34209381 143.58451843 21.44599915 C142.86532993 23.70866123 142.14316365 25.97037871 141.41821289 28.23120117 C140.32282883 31.65521356 139.24395494 35.08413387 138.16601562 38.51367188 C127.06074921 73.49496574 127.06074921 73.49496574 110.11736584 83.38580704 C100.81900283 88.20056184 91.58208094 89.58898346 81.2331543 89.45410156 C80.03156677 89.45468567 78.82997925 89.45526978 77.59197998 89.45587158 C74.34256738 89.45358605 71.09387229 89.43372873 67.84460044 89.40557575 C64.43206215 89.38032309 61.01950513 89.37820153 57.60688782 89.37347412 C51.16502394 89.36111359 44.72343631 89.32838751 38.28169328 89.28807616 C30.93937 89.24314079 23.59703252 89.2213171 16.25460565 89.20129442 C1.16958402 89.15964731 -13.91518017 89.08943242 -29 89 C-28.68197922 88.0215361 -28.36395844 87.0430722 -28.03630066 86.03495789 C-20.15663097 61.79116582 -20.15663097 61.79116582 -12.36328125 37.51953125 C-11.84905106 35.9079866 -11.84905106 35.9079866 -11.32443237 34.2638855 C-9.96573284 30.00323745 -8.60835677 25.74217011 -7.25219727 21.48071289 C-6.22812183 18.26403854 -5.2020851 15.04799517 -4.17578125 11.83203125 C-3.86860672 10.86473587 -3.56143219 9.89744049 -3.24494934 8.90083313 C-2.96342514 8.01937119 -2.68190094 7.13790924 -2.3918457 6.22973633 C-2.14602249 5.4575325 -1.90019928 4.68532867 -1.64692688 3.88972473 C-1 2 -1 2 0 0 Z " fill="#FFFFFF" transform="translate(553,62)"/>
<path d="M0 0 C1.32479118 -0.00503792 1.32479118 -0.00503792 2.67634583 -0.01017761 C5.6 -0.01968796 8.52359694 -0.02163063 11.44726562 -0.02270508 C13.47603377 -0.0259171 15.50480168 -0.02928113 17.53356934 -0.03279114 C21.78719622 -0.03878226 26.04080279 -0.040631 30.29443359 -0.04003906 C35.75226858 -0.03993733 41.20997381 -0.05360145 46.66777802 -0.07081127 C50.85757042 -0.081913 55.04733123 -0.08395885 59.23713684 -0.08342934 C61.24982654 -0.08461176 63.262517 -0.08904812 65.27519226 -0.0967617 C68.08589867 -0.10652672 70.89632055 -0.10369762 73.70703125 -0.09765625 C74.54244949 -0.10327576 75.37786774 -0.10889526 76.23860168 -0.11468506 C80.1320326 -0.0933507 82.03867655 -0.06462904 85.35351562 2.14526367 C84.79100117 8.354284 83.34997645 13.77654356 81.29101562 19.64526367 C80.32164062 22.45026367 79.35226562 25.25526367 78.35351562 28.14526367 C66.80351563 28.14526367 55.25351562 28.14526367 43.35351562 28.14526367 C44.35351562 21.14526367 44.35351562 21.14526367 45.35351562 19.14526367 C38.75351562 19.14526367 32.15351563 19.14526367 25.35351562 19.14526367 C24.87914062 20.93963867 24.40476562 22.73401367 23.91601562 24.58276367 C22.47851562 30.02026367 22.47851562 30.02026367 21.35351562 31.14526367 C19.97191448 31.23804697 18.58563525 31.2627341 17.20092773 31.25878906 C16.32009018 31.25871353 15.43925262 31.258638 14.53172302 31.25856018 C13.57443802 31.2533989 12.61715302 31.24823761 11.63085938 31.24291992 C10.65564835 31.24150497 9.68043732 31.24009003 8.67567444 31.2386322 C5.5474242 31.233015 2.41924439 31.2204596 -0.70898438 31.20776367 C-2.82421772 31.20275089 -4.93945218 31.1981876 -7.0546875 31.1940918 C-12.25197734 31.18303999 -17.44922583 31.16628513 -22.64648438 31.14526367 C-21.00599419 24.38669779 -19.31495439 17.69242709 -17.14648438 11.08276367 C-16.74429687 9.83366211 -16.34210938 8.58456055 -15.92773438 7.29760742 C-14.7610883 4.42723125 -14.09872252 2.95316373 -11.64648438 1.14526367 C-7.75313298 -0.15252013 -4.05795489 -0.0022013 0 0 Z " fill="#FFFFFF" transform="translate(458.646484375,61.854736328125)"/>
<path d="M0 0 C22.44 0 44.88 0 68 0 C60 24 60 24 57 30 C22.68 30 -11.64 30 -47 30 C-45 21 -45 21 -41 11 C-24.5 11 -8 11 9 11 C6.35277296 6.43291928 6.35277296 6.43291928 2.8125 3.25 C1.884375 2.5075 0.95625 1.765 0 1 C0 0.67 0 0.34 0 0 Z " fill="#FFFFFF" transform="translate(352,121)"/>
<path d="M0 0 C34.98 0 69.96 0 106 0 C103 11 103 11 100 19 C80.2 19 60.4 19 40 19 C42.63946131 23.56819947 42.63946131 23.56819947 46.1875 26.6875 C47.115625 27.450625 48.04375 28.21375 49 29 C49 29.66 49 30.32 49 31 C29.86 31 10.72 31 -9 31 C-6.16885454 20.61913331 -3.09186562 10.30621874 0 0 Z " fill="#FFFFFF" transform="translate(332,62)"/>
<path d="M0 0 C1.47583955 0.0001591 2.95168467 0.00585225 4.42749023 0.01586914 C5.20293686 0.01728409 5.97838348 0.01869904 6.77732849 0.02015686 C9.26361893 0.02577194 11.74982059 0.03832693 14.23608398 0.05102539 C15.91772331 0.05603845 17.59936405 0.06060169 19.28100586 0.06469727 C23.41189965 0.07574626 27.54272674 0.09302094 31.67358398 0.11352539 C30.65146605 8.91571842 30.65146605 8.91571842 28.79858398 12.80102539 C28.47116211 13.50614258 28.14374023 14.21125977 27.80639648 14.93774414 C27.43256836 15.65575195 27.05874023 16.37375977 26.67358398 17.11352539 C26.32368408 17.97333008 25.97378418 18.83313477 25.61328125 19.71899414 C23.67358398 22.11352539 23.67358398 22.11352539 20.02832031 22.68115234 C18.52052017 22.68036204 17.01257379 22.65218309 15.50561523 22.60180664 C14.31339607 22.59119453 14.31339607 22.59119453 13.09709167 22.58036804 C10.55913038 22.55238413 8.02337791 22.48964379 5.48608398 22.42602539 C3.76541273 22.40094744 2.04470688 22.37813338 0.32397461 22.35766602 C-3.89367299 22.30254507 -8.10967009 22.21624951 -12.32641602 22.11352539 C-11.01827442 18.63270417 -9.70417769 15.15416182 -8.38891602 11.67602539 C-8.01573242 10.68280273 -7.64254883 9.68958008 -7.25805664 8.66625977 C-6.9003418 7.72202148 -6.54262695 6.7777832 -6.17407227 5.80493164 C-5.84415283 4.9303833 -5.5142334 4.05583496 -5.17431641 3.15478516 C-3.81066556 -0.12810707 -3.82932248 0.1306888 0 0 Z M8.67358398 6.11352539 C7.9995009 7.38044047 7.33457902 8.65223288 6.67358398 9.92602539 C6.30233398 10.6337207 5.93108398 11.34141602 5.54858398 12.07055664 C4.4767304 14.20273268 4.4767304 14.20273268 4.67358398 17.11352539 C7.31358398 17.11352539 9.95358398 17.11352539 12.67358398 17.11352539 C12.67358398 16.12352539 12.67358398 15.13352539 12.67358398 14.11352539 C11.35358398 13.78352539 10.03358398 13.45352539 8.67358398 13.11352539 C9.00358398 12.12352539 9.33358398 11.13352539 9.67358398 10.11352539 C11.65358398 9.78352539 13.63358398 9.45352539 15.67358398 9.11352539 C16.00358398 8.12352539 16.33358398 7.13352539 16.67358398 6.11352539 C14.03358398 6.11352539 11.39358398 6.11352539 8.67358398 6.11352539 Z " fill="#FFFFFF" transform="translate(645.326416015625,30.886474609375)"/>
<path d="M0 0 C1.05904289 0.00424484 1.05904289 0.00424484 2.13948059 0.00857544 C4.39133758 0.01975786 6.64279477 0.0448583 8.89453125 0.0703125 C10.42252029 0.08034483 11.95051558 0.08947024 13.47851562 0.09765625 C17.22150788 0.11969078 20.96420181 0.15420683 24.70703125 0.1953125 C22.52245432 7.7962351 19.83508425 14.92470284 16.70703125 22.1953125 C12.08703125 22.1953125 7.46703125 22.1953125 2.70703125 22.1953125 C3.70703125 17.1953125 3.70703125 17.1953125 4.70703125 15.1953125 C2.39703125 15.1953125 0.08703125 15.1953125 -2.29296875 15.1953125 C-2.50953125 16.3709375 -2.50953125 16.3709375 -2.73046875 17.5703125 C-3.29296875 20.1953125 -3.29296875 20.1953125 -4.29296875 22.1953125 C-8.91296875 22.1953125 -13.53296875 22.1953125 -18.29296875 22.1953125 C-12.21851149 -0.18426687 -12.21851149 -0.18426687 0 0 Z M1.70703125 6.1953125 C1.37703125 7.5153125 1.04703125 8.8353125 0.70703125 10.1953125 C2.68703125 10.1953125 4.66703125 10.1953125 6.70703125 10.1953125 C7.36703125 8.8753125 8.02703125 7.5553125 8.70703125 6.1953125 C6.39703125 6.1953125 4.08703125 6.1953125 1.70703125 6.1953125 Z " fill="#FFFFFF" transform="translate(615.29296875,30.8046875)"/>
<path d="M0 0 C1.58206057 0.00667536 3.16410534 0.0186375 4.74609375 0.03515625 C5.55240234 0.03966797 6.35871094 0.04417969 7.18945312 0.04882812 C9.18753131 0.06065107 11.18557158 0.07858711 13.18359375 0.09765625 C12.48299462 4.66485308 10.87005594 8.66863339 9.12109375 12.91015625 C8.15171875 15.28203125 7.18234375 17.65390625 6.18359375 20.09765625 C12.78359375 20.42765625 19.38359375 20.75765625 26.18359375 21.09765625 C25.52359375 23.07765625 24.86359375 25.05765625 24.18359375 27.09765625 C11.31359375 27.09765625 -1.55640625 27.09765625 -14.81640625 27.09765625 C-4.69988384 0.12026315 -4.69988384 0.12026315 0 0 Z " fill="#FFFFFF" transform="translate(570.81640625,25.90234375)"/>
<path d="M0 0 C1.92453003 0.0314209 1.92453003 0.0314209 3.88793945 0.06347656 C4.91368828 0.07196625 4.91368828 0.07196625 5.9601593 0.08062744 C8.14122969 0.1029934 10.32064824 0.15318391 12.5012207 0.20410156 C13.98101466 0.22416657 15.4608344 0.24241735 16.94067383 0.25878906 C20.5655583 0.30285682 24.18947826 0.37188334 27.8137207 0.45410156 C27.1537207 2.43410156 26.4937207 4.41410156 25.8137207 6.45410156 C20.8637207 6.78410156 15.9137207 7.11410156 10.8137207 7.45410156 C14.1137207 9.76410156 17.4137207 12.07410156 20.8137207 14.45410156 C20.4837207 17.09410156 20.1537207 19.73410156 19.8137207 22.45410156 C9.2537207 22.45410156 -1.3062793 22.45410156 -12.1862793 22.45410156 C-11.8562793 20.80410156 -11.5262793 19.15410156 -11.1862793 17.45410156 C-4.7512793 16.95910156 -4.7512793 16.95910156 1.8137207 16.45410156 C0.4937207 15.58785156 -0.8262793 14.72160156 -2.1862793 13.82910156 C-6.08793176 10.90113582 -6.08793176 10.90113582 -6.8737793 7.32910156 C-5.79024013 2.79793777 -4.82493243 0.68763883 0 0 Z " fill="#FFFFFF" transform="translate(684.186279296875,30.5458984375)"/>
</svg>
