<svg width="48" height="38" viewBox="0 0 48 38" fill="none" xmlns="http://www.w3.org/2000/svg">
<path d="M23.342 4.51149L13.2205 15.5019C12.8212 15.9344 12.8385 16.6043 13.2639 17.0199C15.9115 19.6063 20.2083 19.6063 22.8559 17.0199L25.6163 14.3231C25.9809 13.967 26.441 13.7719 26.9097 13.738C27.5 13.6871 28.1076 13.8822 28.559 14.3231L43.8889 29.1721L50 24.4231V0L40.2778 5.42736L38.2118 4.079C36.8403 3.18857 35.2344 2.71368 33.5851 2.71368H27.474C27.3785 2.71368 27.2743 2.71368 27.1788 2.72216C25.7118 2.79848 24.3316 3.44298 23.342 4.51149ZM10.1215 12.7797L19.3924 2.71368H15.9549C13.7413 2.71368 11.6233 3.57019 10.0608 5.09663L9.72222 5.42736L0 0V24.4231L13.5764 35.4729C15.5729 37.1011 18.0903 37.9915 20.6858 37.9915H22.0486L21.441 37.3979C20.625 36.6008 20.625 35.3118 21.441 34.5231C22.2569 33.7344 23.5764 33.726 24.3837 34.5231L27.9427 38H28.724C30.3819 38 32.0052 37.6353 33.4809 36.9569L31.1632 34.6842C30.3472 33.8871 30.3472 32.5981 31.1632 31.8094C31.9792 31.0208 33.2986 31.0123 34.1059 31.8094L36.8837 34.5231L38.4028 33.0391C39.1753 32.2843 39.401 31.1904 39.0625 30.2321L27.092 18.6311L25.7986 19.8947C21.5191 24.0754 14.592 24.0754 10.3125 19.8947C8.31597 17.9442 8.23785 14.815 10.1215 12.7713V12.7797Z" fill="#4A9EFF"/>
</svg>
