<svg width="50" height="50" viewBox="0 0 50 50" fill="none" xmlns="http://www.w3.org/2000/svg">
<path d="M15.8495 10C15.8495 12.7578 13.6856 15 11.0242 15C8.36277 15 6.19894 12.7578 6.19894 10C6.19894 7.24219 8.36277 5 11.0242 5C13.6856 5 15.8495 7.24219 15.8495 10ZM3.3264 23.2344C3.58275 19.9922 6.19894 17.5 9.33536 17.5H12.713C14.7487 17.5 16.5582 18.5469 17.6514 20.1641C17.4478 20.3125 17.2594 20.4766 17.0859 20.6563L12.2607 25.6563C10.6095 27.3672 10.6095 30.1328 12.2607 31.8438L15.8495 35.5625V41.25C15.8495 43.3203 14.2285 45 12.2305 45H9.81789C7.81993 45 6.19894 43.3203 6.19894 41.25V32.2109C4.20098 31.4687 2.8288 29.4141 3.01728 27.0859L3.3264 23.2344ZM44.8011 10C44.8011 12.7578 42.6372 15 39.9758 15C37.3144 15 35.1505 12.7578 35.1505 10C35.1505 7.24219 37.3144 5 39.9758 5C42.6372 5 44.8011 7.24219 44.8011 10ZM33.9141 20.6563C33.7406 20.4766 33.5446 20.3125 33.3486 20.1641C34.4418 18.5469 36.2588 17.5 38.2869 17.5H41.6646C44.8011 17.5 47.4172 19.9922 47.6736 23.2344L47.9827 27.0859C48.1712 29.4141 46.799 31.4687 44.8011 32.2109V41.25C44.8011 43.3203 43.1801 45 41.1821 45H38.7695C36.7715 45 35.1505 43.3203 35.1505 41.25V35.5625L38.7393 31.8438C40.3905 30.1328 40.3905 27.3672 38.7393 25.6563L33.9141 20.6563ZM21.8811 23.75V26.25H29.1189V23.75C29.1189 22.9922 29.5562 22.3047 30.2348 22.0156C30.9133 21.7266 31.6899 21.8828 32.2101 22.4219L37.0354 27.4219C37.7441 28.1563 37.7441 29.3438 37.0354 30.0703L32.2101 35.0703C31.6899 35.6094 30.9133 35.7656 30.2348 35.4766C29.5562 35.1875 29.1189 34.5 29.1189 33.7422V31.25H21.8811V33.75C21.8811 34.5078 21.4438 35.1953 20.7652 35.4844C20.0867 35.7734 19.3101 35.6172 18.7899 35.0781L13.9646 30.0781C13.2559 29.3438 13.2559 28.1563 13.9646 27.4297L18.7899 22.4297C19.3101 21.8906 20.0867 21.7344 20.7652 22.0234C21.4438 22.3125 21.8811 23 21.8811 23.7578V23.75Z" fill="#4A9EFF"/>
</svg>
