<svg width="50" height="50" viewBox="0 0 50 50" fill="none" xmlns="http://www.w3.org/2000/svg">
<path d="M10 24.9961L12.2266 7.18707C12.3828 5.93732 13.4453 5 14.7109 5H27.8828C29.0547 5 30 5.94513 30 7.11677C30 7.36673 29.9531 7.62449 29.8672 7.85882L26.25 17.4976H37.1328C38.7109 17.4976 40 18.7786 40 20.3642C40 20.9422 39.8281 21.5046 39.5 21.9811L24.4844 43.9299C24.0234 44.6016 23.2656 45 22.4609 45H22.2344C21.0078 45 20.0078 44.0002 20.0078 42.7739C20.0078 42.5942 20.0312 42.4146 20.0781 42.2349L23.75 27.4956H12.5C11.1172 27.4956 10 26.3786 10 24.9961Z" fill="#4A9EFF"/>
</svg>
