<svg width="50" height="50" viewBox="0 0 50 50" fill="none" xmlns="http://www.w3.org/2000/svg">
<path d="M25.0234 15L18.4141 3.99217C17.9063 3.14842 16.8438 2.84374 15.9688 3.28124L9.20313 6.66405C8.27345 7.12499 7.89845 8.24999 8.35938 9.17967L13.7969 20.0469C11.4453 22.6953 10.0234 26.1797 10.0234 30C10.0234 38.2812 16.7422 45 25.0234 45C33.3047 45 40.0234 38.2812 40.0234 30C40.0234 26.1797 38.5938 22.6953 36.25 20.0469L41.6875 9.17967C42.1484 8.24999 41.7734 7.12499 40.8516 6.66405L34.0781 3.27342C33.2031 2.83592 32.1328 3.14842 31.6328 3.98436L25.0234 15ZM27.4297 26.1328C27.5391 26.3515 27.7422 26.5 27.9766 26.5312L31.8906 27.1015C32.4922 27.1875 32.7266 27.9219 32.2969 28.3515L29.4609 31.1172C29.2891 31.289 29.2109 31.5234 29.25 31.7656L29.9219 35.664C30.0234 36.2578 29.3984 36.7187 28.8594 36.4375L25.3594 34.5937C25.1484 34.4844 24.8906 34.4844 24.6797 34.5937L21.1797 36.4375C20.6406 36.7187 20.0156 36.2656 20.1172 35.664L20.7891 31.7656C20.8281 31.5312 20.75 31.289 20.5781 31.1172L17.7422 28.3515C17.3047 27.9297 17.5469 27.1953 18.1484 27.1015L22.0625 26.5312C22.2969 26.5 22.5078 26.3437 22.6094 26.1328L24.3594 22.5859C24.625 22.0391 25.3984 22.0391 25.6719 22.5859L27.4219 26.1328H27.4297Z" fill="#4A9EFF"/>
</svg>
