<svg width="50" height="50" viewBox="0 0 50 50" fill="none" xmlns="http://www.w3.org/2000/svg">
<path d="M23.9999 16.3768L17.3361 5.87414C16.8241 5.06911 15.7528 4.77841 14.8706 5.19583L8.04929 8.4234C7.11195 8.86318 6.73386 9.93655 7.19859 10.8236L12.6809 21.192C10.3099 23.7189 8.87636 27.0434 8.87636 30.6884C8.87636 38.5896 15.6504 45 23.9999 45C32.3494 45 39.1234 38.5896 39.1234 30.6884C39.1234 27.0434 37.682 23.7189 35.3189 21.192L40.8012 10.8236C41.266 9.93655 40.8879 8.86318 39.9584 8.4234L33.1292 5.18837C32.247 4.77095 31.1678 5.06911 30.6637 5.86669L23.9999 16.3768ZM26.426 26.9987C26.5363 27.2074 26.741 27.349 26.9774 27.3788L30.9237 27.923C31.5302 28.005 31.7665 28.7056 31.3332 29.1156L28.474 31.7543C28.3007 31.9183 28.2219 32.1419 28.2613 32.373L28.9387 36.0925C29.0411 36.659 28.4109 37.0988 27.8674 36.8305L24.3386 35.0713C24.1259 34.967 23.866 34.967 23.6533 35.0713L20.1245 36.8305C19.581 37.0988 18.9508 36.6665 19.0532 36.0925L19.7307 32.373C19.77 32.1494 19.6913 31.9183 19.518 31.7543L16.6587 29.1156C16.2176 28.7131 16.4618 28.0124 17.0683 27.923L21.0146 27.3788C21.2509 27.349 21.4636 27.1999 21.566 26.9987L23.3304 23.6146C23.5982 23.0928 24.378 23.0928 24.6537 23.6146L26.4181 26.9987H26.426Z" fill="#4A9EFF"/>
</svg>
