<svg width="50" height="50" viewBox="0 0 50 50" fill="none" xmlns="http://www.w3.org/2000/svg">
<path d="M10 25L12.2266 7.1875C12.3828 5.9375 13.4453 5 14.7109 5H27.8828C29.0547 5 30 5.94531 30 7.11719C30 7.36719 29.9531 7.625 29.8672 7.85937L26.25 17.5H37.1328C38.7109 17.5 40 18.7813 40 20.3672C40 20.9453 39.8281 21.5078 39.5 21.9844L24.4844 43.9375C24.0234 44.6094 23.2656 45.0078 22.4609 45.0078H22.2344C21.0078 45.0078 20.0078 44.0078 20.0078 42.7812C20.0078 42.6016 20.0312 42.4219 20.0781 42.2422L23.75 27.5H12.5C11.1172 27.5 10 26.3828 10 25Z" fill="#4A9EFF"/>
</svg>
