<svg width="50" height="50" viewBox="0 0 50 50" fill="none" xmlns="http://www.w3.org/2000/svg">
<path d="M37.5 21.25C37.5 24.8359 36.3359 28.1484 34.375 30.8359L44.2656 40.7344C45.2422 41.7109 45.2422 43.2969 44.2656 44.2734C43.2891 45.25 41.7031 45.25 40.7266 44.2734L30.8359 34.375C28.1484 36.3359 24.8359 37.5 21.25 37.5C12.2734 37.5 5 30.2266 5 21.25C5 12.2734 12.2734 5 21.25 5C30.2266 5 37.5 12.2734 37.5 21.25ZM21.25 32.5C27.4609 32.5 32.5 27.4609 32.5 21.25C32.5 15.0391 27.4609 10 21.25 10C15.0391 10 10 15.0391 10 21.25C10 27.4609 15.0391 32.5 21.25 32.5Z" fill="#4A9EFF"/>
</svg>
