<svg width="50" height="50" viewBox="0 0 50 50" fill="none" xmlns="http://www.w3.org/2000/svg">
<path d="M37.5016 21.2476C37.5016 24.833 36.3375 28.145 34.3764 30.8322L44.2675 40.7291C45.2442 41.7056 45.2442 43.2913 44.2675 44.2677C43.2909 45.2441 41.7049 45.2441 40.7283 44.2677L30.8372 34.3707C28.1496 36.3313 24.8369 37.4952 21.2508 37.4952C12.2738 37.4952 5 30.2229 5 21.2476C5 12.2724 12.2738 5 21.2508 5C30.2278 5 37.5016 12.2724 37.5016 21.2476ZM21.2508 32.496C27.462 32.496 32.5013 27.4576 32.5013 21.2476C32.5013 15.0376 27.462 9.99927 21.2508 9.99927C15.0396 9.99927 10.0002 15.0376 10.0002 21.2476C10.0002 27.4576 15.0396 32.496 21.2508 32.496Z" fill="#4A9EFF"/>
</svg>
