<svg width="44" height="44" viewBox="0 0 44 44" fill="none" xmlns="http://www.w3.org/2000/svg">
<path d="M13.1999 26.4H6.08423C4.37235 26.4 3.32048 24.5369 4.20048 23.0657L7.83735 17.0019C8.43548 16.005 9.50798 15.4 10.6699 15.4H17.2011C22.433 6.53817 30.2361 6.0913 35.4542 6.85442C36.3342 6.98505 37.0217 7.67255 37.1455 8.54567C37.9086 13.7638 37.4617 21.5669 28.5999 26.7988V33.33C28.5999 34.4919 27.9949 35.5644 26.998 36.1625L20.9342 39.7994C19.4699 40.6794 17.5999 39.6207 17.5999 37.9157V30.8C17.5999 28.3732 15.6267 26.4 13.1999 26.4ZM31.8999 15.4C31.8999 13.5782 30.4217 12.1 28.5999 12.1C26.778 12.1 25.2999 13.5782 25.2999 15.4C25.2999 17.2219 26.778 18.7 28.5999 18.7C30.4217 18.7 31.8999 17.2219 31.8999 15.4Z" fill="white"/>
</svg>
