<svg width="44" height="44" viewBox="0 0 44 44" fill="none" xmlns="http://www.w3.org/2000/svg">
<path d="M35.1999 21.9999C35.1999 14.7124 29.2874 8.7999 21.9999 8.7999C14.7124 8.7999 8.7999 14.7124 8.7999 21.9999C8.7999 29.2874 14.7124 35.1999 21.9999 35.1999C29.2874 35.1999 35.1999 29.2874 35.1999 21.9999ZM4.3999 21.9999C4.3999 12.2787 12.2787 4.3999 21.9999 4.3999C31.7212 4.3999 39.5999 12.2787 39.5999 21.9999C39.5999 31.7212 31.7212 39.5999 21.9999 39.5999C12.2787 39.5999 4.3999 31.7212 4.3999 21.9999ZM21.9999 27.4999C25.0387 27.4999 27.4999 25.0387 27.4999 21.9999C27.4999 18.9612 25.0387 16.4999 21.9999 16.4999C18.9612 16.4999 16.4999 18.9612 16.4999 21.9999C16.4999 25.0387 18.9612 27.4999 21.9999 27.4999ZM21.9999 12.0999C27.4655 12.0999 31.8999 16.5343 31.8999 21.9999C31.8999 27.4655 27.4655 31.8999 21.9999 31.8999C16.5343 31.8999 12.0999 27.4655 12.0999 21.9999C12.0999 16.5343 16.5343 12.0999 21.9999 12.0999ZM19.7999 21.9999C19.7999 20.783 20.783 19.7999 21.9999 19.7999C23.2168 19.7999 24.1999 20.783 24.1999 21.9999C24.1999 23.2168 23.2168 24.1999 21.9999 24.1999C20.783 24.1999 19.7999 23.2168 19.7999 21.9999Z" fill="white"/>
</svg>
