<svg width="44" height="32" viewBox="0 0 44 32" fill="none" xmlns="http://www.w3.org/2000/svg">
<path d="M4.4 4.99998C4.4 2.5731 6.37313 0.599976 8.8 0.599976H35.2C37.6269 0.599976 39.6 2.5731 39.6 4.99998V21.5H35.2V4.99998H8.8V21.5H4.4V4.99998ZM0 26.12C0 25.3912 0.59125 24.8 1.32 24.8H42.68C43.4088 24.8 44 25.3912 44 26.12C44 29.035 41.635 31.4 38.72 31.4H5.28C2.365 31.4 0 29.035 0 26.12ZM19.3188 12.7687L17.1875 14.9L19.3188 17.0312C19.965 17.6775 19.965 18.7225 19.3188 19.3618C18.6725 20.0012 17.6275 20.0081 16.9881 19.3618L13.6881 16.0618C13.0419 15.4156 13.0419 14.3706 13.6881 13.7312L16.9881 10.4312C17.6344 9.78498 18.6794 9.78498 19.3188 10.4312C19.9581 11.0775 19.965 12.1225 19.3188 12.7618V12.7687ZM27.0188 10.4312L30.3188 13.7312C30.965 14.3775 30.965 15.4225 30.3188 16.0618L27.0188 19.3618C26.3725 20.0081 25.3275 20.0081 24.6881 19.3618C24.0488 18.7156 24.0419 17.6706 24.6881 17.0312L26.8194 14.9L24.6881 12.7687C24.0419 12.1225 24.0419 11.0775 24.6881 10.4381C25.3344 9.79873 26.3794 9.79185 27.0188 10.4381V10.4312Z" fill="#99E39E"/>
<path d="M1.32031 25.5502H42.6797C42.9941 25.5502 43.2497 25.8052 43.25 26.1195C43.25 28.6203 41.2205 30.6498 38.7197 30.6498H5.28027C2.77949 30.6498 0.75 28.6203 0.75 26.1195C0.750253 25.8052 1.00593 25.5502 1.32031 25.5502ZM8.7998 1.34998H35.2002C37.2128 1.35008 38.8496 2.98777 38.8496 5.00037V20.7504H35.9502V4.25037H8.0498V20.7504H5.15039V5.00037C5.15039 2.98777 6.78723 1.35008 8.7998 1.34998ZM25.2158 10.9711C25.575 10.616 26.1446 10.6212 26.4854 10.9652L27.7686 12.2621V12.2416L29.7881 14.2611C30.1208 14.5938 30.1382 15.1139 29.8525 15.4613L29.791 15.5287L26.4883 18.8314C26.1334 19.1863 25.566 19.1821 25.2217 18.8344C24.8663 18.4751 24.8715 17.9056 25.2158 17.5648L25.2188 17.5619L27.3496 15.4301L27.8799 14.8998L25.2188 12.2386C24.8638 11.8837 24.8678 11.3154 25.2158 10.9711ZM17.5186 10.9613C17.8734 10.6067 18.4409 10.6108 18.7852 10.9584C19.1406 11.3176 19.1354 11.8881 18.791 12.2289L18.5684 12.4486V12.4584L16.127 14.8998L16.6572 15.4301L18.7881 17.5619C19.143 17.9168 19.139 18.4842 18.791 18.8285C18.4318 19.1839 17.8622 19.1786 17.5215 18.8344L14.2188 15.5316C13.8638 15.1767 13.8678 14.6083 14.2158 14.264L17.5186 10.9613Z" stroke="black" stroke-opacity="0.65" stroke-width="1.5"/>
</svg>
